<svg width="89" height="29" viewBox="0 0 89 29" fill="none" xmlns="http://www.w3.org/2000/svg">
<path d="M0.323892 16.6536C0.731841 17.3739 5.57644 15.1336 13.4223 12.1073C17.9665 10.3464 22.6294 8.90896 27.3763 7.80567C33.0831 6.491 38.9468 5.98795 44.7941 6.31138C50.5842 6.67907 56.2579 8.10401 61.5346 10.5157C65.956 12.4885 70.1853 14.8665 74.1682 17.6193C77.0224 19.6042 79.325 21.4171 81.0947 22.8219C80.1982 22.8274 79.3196 22.8405 78.4811 22.8678C76.3112 22.9382 74.3545 23.0794 72.7086 23.2794C69.4167 23.6795 67.3677 24.3152 67.342 25.0914C67.3162 25.8676 69.3186 26.6375 72.5768 27.2547C74.2058 27.5634 76.1489 27.8339 78.3094 28.0479C79.3896 28.1549 80.5242 28.2477 81.701 28.3243C82.2897 28.3578 82.8882 28.3918 83.4966 28.4264L84.4153 28.4678C84.6071 28.4719 84.6183 28.4846 85.047 28.4826C85.348 28.4767 85.6472 28.4345 85.9381 28.357C86.4398 28.2239 86.9028 27.9736 87.2889 27.6267C87.6751 27.2798 87.9734 26.8462 88.1593 26.3616C88.2792 26.0513 88.3556 25.7259 88.3865 25.3947C88.4053 25.1986 88.4113 25.0014 88.4043 24.8044L88.3884 24.496C88.3643 24.1133 88.3251 23.7415 88.2749 23.382C88.1762 22.7064 88.042 22.0365 87.873 21.375C87.5536 20.1283 87.223 19.0892 86.8958 18.0425C86.2378 15.9735 85.5697 14.129 84.9295 12.5995C83.6491 9.54054 82.4802 7.74169 81.7262 7.9281C80.9723 8.1145 80.776 10.2507 81.0682 13.5539C81.2144 15.2056 81.4826 17.1489 81.8642 19.2861C81.9062 19.5052 81.9503 19.7354 81.9931 19.959C80.3399 18.0036 78.5432 16.1741 76.618 14.4858C72.7111 11.0707 68.3883 8.16284 63.7525 5.83127C57.9754 2.85494 51.6446 1.10722 45.1587 0.69823C38.7402 0.330792 32.3052 1.03363 26.1173 2.77797C21.1567 4.1746 16.3555 6.08542 11.7919 8.47934C4.07806 12.569 -0.0393345 16.03 0.323892 16.6536Z" fill="#468E0D"/>
</svg>
