<svg width="6" height="11" viewBox="0 0 6 11" fill="none" xmlns="http://www.w3.org/2000/svg">
<path d="M4.53896 3.62999C4.33117 3.43519 4.12338 3.29233 3.92857 3.18843C3.73377 3.09752 3.51299 3.04558 3.26623 3.04558C2.98052 3.04558 2.77273 3.11051 2.62987 3.22739C2.48701 3.34428 2.40909 3.53908 2.40909 3.79882C2.40909 3.98064 2.48701 4.14947 2.64286 4.26636C2.7987 4.39623 2.98052 4.51311 3.21429 4.62999C3.44805 4.74688 3.69481 4.86376 3.95455 4.99363C4.21429 5.1235 4.46104 5.26636 4.69481 5.44817C4.92857 5.62999 5.11039 5.83778 5.26623 6.09752C5.42208 6.35726 5.5 6.66895 5.5 7.03259C5.5 7.59103 5.34416 8.07155 5.04545 8.47415C4.74675 8.87675 4.27922 9.13649 3.68182 9.27934V10.5001H2.55195V9.33129C2.21429 9.29233 1.85065 9.20142 1.47403 9.04558C1.0974 8.88973 0.772727 8.69493 0.5 8.44817L1.25325 7.29233C1.55195 7.51311 1.83766 7.68194 2.0974 7.79882C2.37013 7.91571 2.64286 7.96765 2.91558 7.96765C3.24026 7.96765 3.48701 7.90272 3.62987 7.77285C3.78571 7.64298 3.86364 7.43519 3.86364 7.16246C3.86364 6.95467 3.78571 6.78584 3.62987 6.64298C3.47403 6.50012 3.29221 6.37025 3.05844 6.24038C2.82468 6.11051 2.57792 5.98064 2.31818 5.85077C2.05844 5.7209 1.81169 5.56506 1.57792 5.38324C1.34416 5.20142 1.16234 4.99363 1.00649 4.74688C0.850649 4.50012 0.772727 4.21441 0.772727 3.86376C0.772727 3.29233 0.928571 2.81181 1.24026 2.43519C1.55195 2.05856 1.99351 1.81181 2.53896 1.70791V0.500122H3.66883V1.68194C4.04545 1.73389 4.37013 1.85077 4.65584 2.0196C4.94156 2.18843 5.18831 2.39623 5.42208 2.64298L4.53896 3.62999Z" fill="#333B41"/>
</svg>
